<svg width="1448" height="1448" xmlns="http://www.w3.org/2000/svg" xmlns:xlink="http://www.w3.org/1999/xlink" xml:space="preserve" overflow="hidden"><defs><clipPath id="clip0"><rect x="1510" y="513" width="1448" height="1448"/></clipPath></defs><g clip-path="url(#clip0)" transform="translate(-1510 -513)"><path d="M1511 1237C1511 837.146 1834.92 513 2234.5 513 2634.08 513 2958 837.146 2958 1237 2958 1636.85 2634.08 1961 2234.5 1961 1834.92 1961 1511 1636.85 1511 1237Z" fill="#FFFFFF" fill-rule="evenodd"/><path d="M2234 513C2633.85 513 2958 837.146 2958 1237 2958 1561.88 2744.01 1836.78 2449.3 1928.45L2417.2 1936.7 2895.65 1458.25 2853.86 1416.46 2313.96 1956.36 2308.02 1957.26C2283.69 1959.73 2258.99 1961 2234 1961 2084.05 1961 1944.76 1915.42 1829.2 1837.35L1773.75 1795.88 2114.01 1455.63 2072.22 1413.84 1729.94 1756.11 1722.05 1748.95C1591.04 1617.93 1510 1436.93 1510 1237L1512.37 1190.14 2110.02 592.486 2068.23 550.695 1524.15 1094.77 1524.71 1091.09C1592.22 761.174 1884.13 513 2234 513Z" fill="#21AB7D" fill-rule="evenodd"/><rect x="2070" y="551" width="260" height="909" fill="#FFFFFF"/><rect x="2634" y="551" width="260" height="909" fill="#FFFFFF"/><rect x="2330" y="906" width="304" height="200" fill="#FFFFFF"/></g></svg>